<svg aria-hidden="true" style="position: absolute; width: 0; height: 0; overflow: hidden;" version="1.1" xmlns="http://www.w3.org/2000/svg" xmlns:xlink="http://www.w3.org/1999/xlink">
<defs>
<symbol id="Ar" viewBox="0 0 47 32">
<path  d="M31.493 0.468c-0.304-0.297-0.72-0.481-1.179-0.481s-0.875 0.183-1.179 0.481l0-0c-0.295 0.292-0.478 0.697-0.478 1.145s0.183 0.853 0.478 1.144l0 0 11.951 11.618h-39.436c-0.009-0-0.019-0-0.030-0-0.888 0-1.609 0.714-1.62 1.599v0.001c0 0.001 0 0.003 0 0.005 0 0.908 0.736 1.644 1.644 1.644 0.002 0 0.003 0 0.005 0h39.438l-11.951 11.594c-0.295 0.292-0.478 0.697-0.478 1.145s0.183 0.853 0.478 1.144l0 0c0.304 0.297 0.72 0.481 1.179 0.481s0.875-0.183 1.179-0.481l-0 0 14.769-14.375c0.305-0.283 0.495-0.685 0.495-1.132s-0.19-0.85-0.494-1.131l-0.001-0.001z"></path>
</symbol>
<symbol id="icon-arrow-long" viewBox="0 0 96 32">
<path  d="M0 17.231v-2.462h54.154v2.462h-54.154z"></path>
<path  d="M80.724 0.468c-0.304-0.297-0.719-0.48-1.178-0.48s-0.874 0.183-1.178 0.48l0-0c-0.295 0.292-0.478 0.697-0.478 1.145s0.183 0.853 0.478 1.144l0 0 11.951 11.618h-39.439c-0.009-0-0.019-0-0.030-0-0.888 0-1.609 0.714-1.62 1.599v0.001c0 0.001 0 0.003 0 0.005 0 0.908 0.736 1.644 1.644 1.644 0.002 0 0.003 0 0.005 0h39.439l-11.951 11.594c-0.295 0.292-0.478 0.697-0.478 1.145s0.183 0.853 0.478 1.144l0 0c0.304 0.297 0.719 0.48 1.178 0.48s0.874-0.183 1.178-0.48l14.769-14.375c0.305-0.283 0.495-0.685 0.495-1.132s-0.19-0.85-0.494-1.131l-0.001-0.001z"></path>
</symbol>
</defs>
</svg>
